# xmcd CD database file
#
# Track frame offsets:
#	150
#	21571
#	37862
#	52086
#	72441
#	88952
#	104488
#	125500
#	149289
#	173742
#	189326
#	208685
#	229187
#	250581
#	282592
#	311230
#	332101
#
# Disc length: 4467 seconds
#
# Revision: 0
# Processed by: cddbd v1.5.2PL0 Copyright (c) Steve Scherf et al.
# Submitted via: CDex 1.70beta1
#
DISCID=07117111
DTITLE=Humphrey Lyttelton  - Humph Returns To The Conway 
DYEAR=1900
DGENRE=Jazz
TTITLE0=Love for Sale
TTITLE1=Prelude To A Kiss
TTITLE2=Ida Sweet As Apple Cider
TTITLE3=Willow Weep for Me
TTITLE4=Blue Lou
TTITLE5=Undecided
TTITLE6=Body and Soul
TTITLE7=All Of Me
TTITLE8=Solitude
TTITLE9=Concerto for Tortoiseshell Piano
TTITLE10=Never Mind Eh!
TTITLE11=I Can't Give You Anything But Love
TTITLE12=Joshua
TTITLE13=Ti-Re-Lee
TTITLE14=Billy's Bounce
TTITLE15=Bugle Call Rag
TTITLE16=The Song Is Ended 
EXTD=
EXTT0=
EXTT1=
EXTT2=
EXTT3=
EXTT4=
EXTT5=
EXTT6=
EXTT7=
EXTT8=
EXTT9=
EXTT10=
EXTT11=
EXTT12=
EXTT13=
EXTT14=
EXTT15=
EXTT16=
PLAYORDER=
